<mxfile host="app.diagrams.net" modified="2023-05-01T12:11:56.087Z" agent="Mozilla/5.0 (Windows NT 10.0; Win64; x64) AppleWebKit/537.36 (KHTML, like Gecko) Chrome/112.0.0.0 Safari/537.36" etag="ASZRO0amu9AcGQgtwzwn" version="21.2.3" type="github">
  <diagram name="Page-1" id="GbNY6fpnbydSLhXUVNxI">
    <mxGraphModel dx="1100" dy="513" grid="1" gridSize="10" guides="1" tooltips="1" connect="1" arrows="1" fold="1" page="1" pageScale="1" pageWidth="1654" pageHeight="1169" math="0" shadow="0">
      <root>
        <mxCell id="0" />
        <mxCell id="1" parent="0" />
        <mxCell id="NVoE6GBqi2ldNxTh1baj-1" value="Fact.FRT_FactReturn" style="swimlane;fontStyle=0;align=center;verticalAlign=top;childLayout=stackLayout;horizontal=1;startSize=26;horizontalStack=0;resizeParent=1;resizeLast=0;collapsible=1;marginBottom=0;rounded=1;shadow=0;strokeWidth=1;fillColor=#dae8fc;strokeColor=#6c8ebf;" vertex="1" parent="1">
          <mxGeometry x="340" y="340" width="211" height="526" as="geometry">
            <mxRectangle x="550" y="140" width="160" height="26" as="alternateBounds" />
          </mxGeometry>
        </mxCell>
        <mxCell id="NVoE6GBqi2ldNxTh1baj-2" value="PK ** FRT_Id" style="text;align=left;verticalAlign=top;spacingLeft=4;spacingRight=4;overflow=hidden;rotatable=0;points=[[0,0.5],[1,0.5]];portConstraint=eastwest;" vertex="1" parent="NVoE6GBqi2ldNxTh1baj-1">
          <mxGeometry y="26" width="211" height="26" as="geometry" />
        </mxCell>
        <mxCell id="NVoE6GBqi2ldNxTh1baj-3" value="         FRT_ReturnId" style="text;align=left;verticalAlign=top;spacingLeft=4;spacingRight=4;overflow=hidden;rotatable=0;points=[[0,0.5],[1,0.5]];portConstraint=eastwest;rounded=0;shadow=0;html=0;" vertex="1" parent="NVoE6GBqi2ldNxTh1baj-1">
          <mxGeometry y="52" width="211" height="26" as="geometry" />
        </mxCell>
        <mxCell id="NVoE6GBqi2ldNxTh1baj-25" value="         FRT_ReturnLine" style="text;align=left;verticalAlign=top;spacingLeft=4;spacingRight=4;overflow=hidden;rotatable=0;points=[[0,0.5],[1,0.5]];portConstraint=eastwest;rounded=0;shadow=0;html=0;" vertex="1" parent="NVoE6GBqi2ldNxTh1baj-1">
          <mxGeometry y="78" width="211" height="26" as="geometry" />
        </mxCell>
        <mxCell id="NVoE6GBqi2ldNxTh1baj-26" value="         FRT_QtyDelivred" style="text;align=left;verticalAlign=top;spacingLeft=4;spacingRight=4;overflow=hidden;rotatable=0;points=[[0,0.5],[1,0.5]];portConstraint=eastwest;rounded=0;shadow=0;html=0;" vertex="1" parent="NVoE6GBqi2ldNxTh1baj-1">
          <mxGeometry y="104" width="211" height="26" as="geometry" />
        </mxCell>
        <mxCell id="NVoE6GBqi2ldNxTh1baj-27" value="         FRT_QtyReturn" style="text;align=left;verticalAlign=top;spacingLeft=4;spacingRight=4;overflow=hidden;rotatable=0;points=[[0,0.5],[1,0.5]];portConstraint=eastwest;rounded=0;shadow=0;html=0;" vertex="1" parent="NVoE6GBqi2ldNxTh1baj-1">
          <mxGeometry y="130" width="211" height="26" as="geometry" />
        </mxCell>
        <mxCell id="NVoE6GBqi2ldNxTh1baj-28" value="         FRT_NetPriceTTC" style="text;align=left;verticalAlign=top;spacingLeft=4;spacingRight=4;overflow=hidden;rotatable=0;points=[[0,0.5],[1,0.5]];portConstraint=eastwest;rounded=0;shadow=0;html=0;" vertex="1" parent="NVoE6GBqi2ldNxTh1baj-1">
          <mxGeometry y="156" width="211" height="26" as="geometry" />
        </mxCell>
        <mxCell id="NVoE6GBqi2ldNxTh1baj-37" value="         FRT_NetPriceHT" style="text;align=left;verticalAlign=top;spacingLeft=4;spacingRight=4;overflow=hidden;rotatable=0;points=[[0,0.5],[1,0.5]];portConstraint=eastwest;rounded=0;shadow=0;html=0;" vertex="1" parent="NVoE6GBqi2ldNxTh1baj-1">
          <mxGeometry y="182" width="211" height="26" as="geometry" />
        </mxCell>
        <mxCell id="NVoE6GBqi2ldNxTh1baj-38" value="         FRT_NetPrice" style="text;align=left;verticalAlign=top;spacingLeft=4;spacingRight=4;overflow=hidden;rotatable=0;points=[[0,0.5],[1,0.5]];portConstraint=eastwest;rounded=0;shadow=0;html=0;" vertex="1" parent="NVoE6GBqi2ldNxTh1baj-1">
          <mxGeometry y="208" width="211" height="26" as="geometry" />
        </mxCell>
        <mxCell id="NVoE6GBqi2ldNxTh1baj-39" value="         FRT_ItemKey" style="text;align=left;verticalAlign=top;spacingLeft=4;spacingRight=4;overflow=hidden;rotatable=0;points=[[0,0.5],[1,0.5]];portConstraint=eastwest;rounded=0;shadow=0;html=0;" vertex="1" parent="NVoE6GBqi2ldNxTh1baj-1">
          <mxGeometry y="234" width="211" height="26" as="geometry" />
        </mxCell>
        <mxCell id="NVoE6GBqi2ldNxTh1baj-40" value="         FRT_ReturnDateKey" style="text;align=left;verticalAlign=top;spacingLeft=4;spacingRight=4;overflow=hidden;rotatable=0;points=[[0,0.5],[1,0.5]];portConstraint=eastwest;rounded=0;shadow=0;html=0;" vertex="1" parent="NVoE6GBqi2ldNxTh1baj-1">
          <mxGeometry y="260" width="211" height="26" as="geometry" />
        </mxCell>
        <mxCell id="NVoE6GBqi2ldNxTh1baj-41" value="         FRT_Company" style="text;align=left;verticalAlign=top;spacingLeft=4;spacingRight=4;overflow=hidden;rotatable=0;points=[[0,0.5],[1,0.5]];portConstraint=eastwest;rounded=0;shadow=0;html=0;" vertex="1" parent="NVoE6GBqi2ldNxTh1baj-1">
          <mxGeometry y="286" width="211" height="26" as="geometry" />
        </mxCell>
        <mxCell id="NVoE6GBqi2ldNxTh1baj-42" value="         FRT_ReceivingFacilityKey" style="text;align=left;verticalAlign=top;spacingLeft=4;spacingRight=4;overflow=hidden;rotatable=0;points=[[0,0.5],[1,0.5]];portConstraint=eastwest;rounded=0;shadow=0;html=0;" vertex="1" parent="NVoE6GBqi2ldNxTh1baj-1">
          <mxGeometry y="312" width="211" height="26" as="geometry" />
        </mxCell>
        <mxCell id="NVoE6GBqi2ldNxTh1baj-43" value="         FRT_SaleFacilityKey" style="text;align=left;verticalAlign=top;spacingLeft=4;spacingRight=4;overflow=hidden;rotatable=0;points=[[0,0.5],[1,0.5]];portConstraint=eastwest;rounded=0;shadow=0;html=0;" vertex="1" parent="NVoE6GBqi2ldNxTh1baj-1">
          <mxGeometry y="338" width="211" height="26" as="geometry" />
        </mxCell>
        <mxCell id="NVoE6GBqi2ldNxTh1baj-44" value="         FRT_ShippingFacilityKey" style="text;align=left;verticalAlign=top;spacingLeft=4;spacingRight=4;overflow=hidden;rotatable=0;points=[[0,0.5],[1,0.5]];portConstraint=eastwest;rounded=0;shadow=0;html=0;" vertex="1" parent="NVoE6GBqi2ldNxTh1baj-1">
          <mxGeometry y="364" width="211" height="26" as="geometry" />
        </mxCell>
        <mxCell id="NVoE6GBqi2ldNxTh1baj-45" value="         FRT_CustomerKey" style="text;align=left;verticalAlign=top;spacingLeft=4;spacingRight=4;overflow=hidden;rotatable=0;points=[[0,0.5],[1,0.5]];portConstraint=eastwest;rounded=0;shadow=0;html=0;" vertex="1" parent="NVoE6GBqi2ldNxTh1baj-1">
          <mxGeometry y="390" width="211" height="26" as="geometry" />
        </mxCell>
        <mxCell id="NVoE6GBqi2ldNxTh1baj-46" value="         FRT_DeliveryCountyKey" style="text;align=left;verticalAlign=top;spacingLeft=4;spacingRight=4;overflow=hidden;rotatable=0;points=[[0,0.5],[1,0.5]];portConstraint=eastwest;rounded=0;shadow=0;html=0;" vertex="1" parent="NVoE6GBqi2ldNxTh1baj-1">
          <mxGeometry y="416" width="211" height="26" as="geometry" />
        </mxCell>
        <mxCell id="NVoE6GBqi2ldNxTh1baj-47" value="         FRT_DeliveryMethodKeyKey" style="text;align=left;verticalAlign=top;spacingLeft=4;spacingRight=4;overflow=hidden;rotatable=0;points=[[0,0.5],[1,0.5]];portConstraint=eastwest;rounded=0;shadow=0;html=0;" vertex="1" parent="NVoE6GBqi2ldNxTh1baj-1">
          <mxGeometry y="442" width="211" height="26" as="geometry" />
        </mxCell>
        <mxCell id="NVoE6GBqi2ldNxTh1baj-24" value="" style="line;html=1;strokeWidth=1;align=left;verticalAlign=middle;spacingTop=-1;spacingLeft=3;spacingRight=3;rotatable=0;labelPosition=right;points=[];portConstraint=eastwest;" vertex="1" parent="NVoE6GBqi2ldNxTh1baj-1">
          <mxGeometry y="468" width="211" height="58" as="geometry" />
        </mxCell>
      </root>
    </mxGraphModel>
  </diagram>
</mxfile>
